<svg width="24" height="26" viewBox="0 0 24 26" fill="none" xmlns="http://www.w3.org/2000/svg">
<path d="M14.3566 8C14.3566 9.44 13.2953 10.5 11.8566 10.5C10.4191 10.5 9.3566 9.44 9.3566 8C9.3566 6.56 10.4191 5.5 11.8566 5.5C13.2953 5.5 14.3566 6.56 14.3566 8Z" fill="#F2F2F2"/>
<path d="M6.8566 16.25C6.8566 13.765 9.09535 11.75 11.8566 11.75C14.6178 11.75 16.8566 13.765 16.8566 16.25V16.7325H6.8566V16.25Z" fill="#F2F2F2"/>
<path fill-rule="evenodd" clip-rule="evenodd" d="M3.1066 0.5H20.6066C21.9853 0.5 23.1066 1.62125 23.1066 3V19.25C23.1066 20.6287 21.9853 21.75 20.6066 21.75H15.6066L11.8566 25.5L8.1066 21.75H3.1066C1.72785 21.75 0.606598 20.6287 0.606598 19.25V3C0.606598 1.62125 1.72785 0.5 3.1066 0.5ZM11.8566 21.75L14.3566 19.25H20.6091L20.6066 3H3.1066V19.25H9.3566L11.8566 21.75Z" fill="#F2F2F2"/>
</svg>
