<svg width="22" height="22" viewBox="0 0 22 22" fill="none" xmlns="http://www.w3.org/2000/svg">
<path fill-rule="evenodd" clip-rule="evenodd" d="M14.1139 12.5961C16.2013 9.66709 15.9311 5.57448 13.3033 2.9467C10.3744 0.0177668 5.62563 0.0177671 2.6967 2.9467C-0.232233 5.87563 -0.232233 10.6244 2.6967 13.5533C5.32448 16.1811 9.41709 16.4513 12.3461 14.3639L19.4905 21.5083L21.2583 19.7405L14.1139 12.5961ZM11.5355 4.71447C13.4882 6.66709 13.4882 9.83291 11.5355 11.7855C9.58291 13.7382 6.41709 13.7382 4.46447 11.7855C2.51184 9.83291 2.51184 6.66709 4.46447 4.71447C6.41709 2.76184 9.58291 2.76184 11.5355 4.71447Z" fill="#F2F2F2"/>
</svg>
