<svg width="26" height="26" viewBox="0 0 26 26" fill="none" xmlns="http://www.w3.org/2000/svg">
<path fill-rule="evenodd" clip-rule="evenodd" d="M13 15.5C15.7614 15.5 18 13.2614 18 10.5C18 7.73858 15.7614 5.5 13 5.5C10.2386 5.5 8 7.73858 8 10.5C8 13.2614 10.2386 15.5 13 15.5ZM13 13C14.3807 13 15.5 11.8807 15.5 10.5C15.5 9.11929 14.3807 8 13 8C11.6193 8 10.5 9.11929 10.5 10.5C10.5 11.8807 11.6193 13 13 13Z" fill="#F2F2F2"/>
<path fill-rule="evenodd" clip-rule="evenodd" d="M20.4076 23.0696C23.4962 20.7937 25.5 17.1309 25.5 13C25.5 6.09644 19.9036 0.5 13 0.5C6.09644 0.5 0.5 6.09644 0.5 13C0.5 17.1309 2.50377 20.7937 5.59235 23.0696C5.64917 23.1115 5.70636 23.1529 5.76391 23.1938C6.32497 23.5928 6.92038 23.9466 7.54484 24.25C9.1933 25.0508 11.0442 25.5 13 25.5C14.9558 25.5 16.8067 25.0508 18.4552 24.25C18.4887 24.2337 18.5221 24.2173 18.5554 24.2007C19.2071 23.8769 19.8266 23.4978 20.4076 23.0696ZM19.5359 20.5687C21.6575 18.735 23 16.0243 23 13C23 7.47715 18.5228 3 13 3C7.47715 3 3 7.47715 3 13C3 16.0243 4.34252 18.735 6.4641 20.5687C7.75083 18.2891 10.1957 16.75 13 16.75C15.8043 16.75 18.2492 18.2891 19.5359 20.5687ZM17.4459 21.9598C16.6151 20.3504 14.9361 19.25 13 19.25C11.0639 19.25 9.3849 20.3504 8.55415 21.9598C9.89334 22.6256 11.4029 23 13 23C14.597 23 16.1067 22.6256 17.4459 21.9598Z" fill="#F2F2F2"/>
</svg>
